<svg width="24" height="24" viewBox="0 0 24 24" fill="none" xmlns="http://www.w3.org/2000/svg">
<path d="M24 11.8C24 10.2 22.7 8.89999 21.1 8.89999C20.4 8.89999 19.8 9.09999 19.3 9.49999C17.5 8.39999 15.3 7.69999 12.9 7.59999L14.1 3.69999L17.5 4.49999C17.6 5.69999 18.6 6.69999 19.9 6.69999C21.2 6.69999 22.3 5.59999 22.3 4.29999C22.3 2.99999 21.2 1.89999 19.9 1.89999C19 1.89999 18.2 2.39999 17.8 3.19999L13.8 2.29999C13.5 2.19999 13.1 2.39999 13 2.69999L11.5 7.59999C9 7.69999 6.5 8.29999 4.7 9.49999C4.2 9.09999 3.6 8.89999 2.9 8.89999C1.3 8.89999 0 10.2 0 11.8C0 12.8 0.5 13.7 1.2 14.2C1.2 14.4 1.2 14.7 1.2 14.9C1.2 16.9 2.4 18.7 4.5 20.1C6.5 21.4 9.2 22.1 12 22.1C14.8 22.1 17.5 21.4 19.5 20.1C21.6 18.7 22.8 16.9 22.8 14.9C22.8 14.7 22.8 14.5 22.8 14.3C23.5 13.7 24 12.8 24 11.8ZM20 3.19999C20.6 3.19999 21.1 3.69999 21.1 4.29999C21.1 4.89999 20.6 5.39999 20 5.39999C19.4 5.39999 18.9 4.89999 18.9 4.29999C18.9 3.69999 19.4 3.19999 20 3.19999ZM6.8 13.6C6.8 12.7 7.6 12 8.4 12C9.3 12 10 12.8 10 13.6C10 14.4 9.3 15.2 8.4 15.2C7.6 15.2 6.8 14.5 6.8 13.6ZM16 18.3C15.2 19.1 13.9 19.5 12.1 19.5C10.3 19.5 9 19.1 8.2 18.3C7.9 18 7.9 17.6 8.2 17.4C8.5 17.1 8.9 17.1 9.1 17.4C9.7 18 10.7 18.3 12.1 18.3C13.5 18.3 14.5 18 15.1 17.4C15.4 17.1 15.8 17.1 16 17.4C16.2 17.7 16.2 18.1 16 18.3ZM15.6 15.2C14.7 15.2 13.9 14.5 13.9 13.6C13.9 12.7 14.7 12 15.6 12C16.5 12 17.2 12.8 17.2 13.6C17.2 14.4 16.5 15.2 15.6 15.2Z" fill="#27545B"/>
</svg>
