<svg width="60" height="70" viewBox="0 0 60 70" fill="none" xmlns="http://www.w3.org/2000/svg">
<g filter="url(#filter0_f)">
<rect x="18" y="52" width="24" height="8" rx="4" fill="#191919"/>
</g>
<mask id="mask0" mask-type="alpha" maskUnits="userSpaceOnUse" x="0" y="0" width="60" height="60">
<circle cx="30" cy="30" r="28" fill="#FF156D" stroke="#191919" stroke-width="4"/>
</mask>
<g mask="url(#mask0)">
<circle cx="30" cy="30" r="28.5" fill="#27545B" stroke="#191919" stroke-width="3"/>
<g style="mix-blend-mode:multiply" opacity="0.2">
<path d="M59.5 29.5C39.5 58.7 6.5 51.6667 -7.5 44.5V61.5H59.5V29.5Z" fill="#191919"/>
</g>
</g>
<path d="M25.6 20.2C25.297 19.973 24.892 19.936 24.553 20.105C24.214 20.275 24 20.621 24 21V39C24 39.379 24.214 39.725 24.553 39.895C24.694 39.965 24.848 40 25 40C25.212 40 25.424 39.932 25.6 39.8L37.6 30.8C37.852 30.612 38 30.315 38 30C38 29.685 37.852 29.389 37.6 29.2L25.6 20.2Z" fill="white"/>
<defs>
<filter id="filter0_f" x="8" y="42" width="44" height="28" filterUnits="userSpaceOnUse" color-interpolation-filters="sRGB">
<feFlood flood-opacity="0" result="BackgroundImageFix"/>
<feBlend mode="normal" in="SourceGraphic" in2="BackgroundImageFix" result="shape"/>
<feGaussianBlur stdDeviation="5" result="effect1_foregroundBlur"/>
</filter>
</defs>
</svg>
