<svg width="21" height="16" viewBox="0 0 21 16" fill="none" xmlns="http://www.w3.org/2000/svg">
<path d="M8.46 0.239997C7.5 0.239997 6.48 0.479997 5.52 0.959998C4.56 1.44 3.66 2.1 2.88 2.88C2.04 3.72 1.38 4.62 0.9 5.7C0.36 6.78 0.12 7.86 0.12 8.94V13.92C0.12 14.94 0.6 15.42 1.62 15.42H7.02C7.98 15.42 8.46 14.94 8.46 13.92V8.82C8.46 8.58 8.34 8.34 8.22 8.22C8.04 8.1 7.86 8.04 7.68 7.92C7.5 7.86 7.32 7.74 7.2 7.62C7.08 7.5 7.02 7.32 7.02 7.08V6.06C7.02 5.52 7.08 4.98 7.32 4.5C7.5 4.02 8.04 3.54 9 2.94C9.6 2.58 9.96 2.1 9.96 1.5C9.96 1.2 9.84 0.899999 9.6 0.659999C9.36 0.419998 8.94 0.239997 8.46 0.239997ZM19.26 0.239997C18.3 0.239997 17.28 0.479997 16.32 0.959998C15.36 1.44 14.46 2.1 13.68 2.88C12.84 3.72 12.18 4.62 11.7 5.7C11.16 6.78 10.92 7.86 10.92 8.94V13.92C10.92 14.94 11.4 15.42 12.42 15.42H17.82C18.78 15.42 19.26 14.94 19.26 13.92V8.82C19.26 8.58 19.14 8.34 19.02 8.22C18.84 8.1 18.66 8.04 18.48 7.92C18.3 7.86 18.12 7.74 18 7.62C17.88 7.5 17.82 7.32 17.82 7.08V6.06C17.82 5.52 17.88 4.98 18.12 4.5C18.3 4.02 18.84 3.54 19.8 2.94C20.4 2.58 20.76 2.1 20.76 1.5C20.76 1.2 20.64 0.899999 20.4 0.659999C20.16 0.419998 19.74 0.239997 19.26 0.239997Z" fill="#FF156D"/>
</svg>
