<svg width="44" height="44" viewBox="0 0 44 44" fill="none" xmlns="http://www.w3.org/2000/svg">
<mask id="mask0" mask-type="alpha" maskUnits="userSpaceOnUse" x="0" y="0" width="44" height="44">
<circle cx="22" cy="22" r="20" fill="#FF156D" stroke="#191919" stroke-width="4"/>
</mask>
<g mask="url(#mask0)">
<circle cx="22" cy="22" r="20.5" fill="#4BDEC7" stroke="#191919" stroke-width="3"/>
<g style="mix-blend-mode:multiply" opacity="0.2">
<path d="M42 24C28.8657 43.1625 7.19403 38.5469 -2 33.8438V45H42V24Z" fill="#191919"/>
</g>
<path opacity="0.4" d="M22.0206 7.01042C18.6164 7.00806 15.3126 8.16372 12.6521 10.2875C9.99161 12.4113 8.13266 15.3769 7.38069 18.697C6.62873 22.0172 7.02848 25.4943 8.51425 28.5572C10 31.6201 12.4835 34.0865 15.5565 35.5511C18.6295 37.0157 22.1094 37.3915 25.4242 36.6167C28.7391 35.8419 31.6918 33.9626 33.7972 31.2875C35.9027 28.6125 37.0355 25.3008 37.0097 21.8967C36.9839 18.4926 35.801 15.1985 33.6552 12.5557L22.0102 22.0104L22.0206 7.01042Z" fill="#27545B"/>
</g>
<path d="M16 29H20V15H16V29ZM24 15V29H28V15H24Z" fill="white"/>
</svg>
