<svg width="44" height="44" viewBox="0 0 44 44" fill="none" xmlns="http://www.w3.org/2000/svg">
<mask id="mask0" mask-type="alpha" maskUnits="userSpaceOnUse" x="0" y="0" width="44" height="44">
<circle cx="22" cy="22" r="20" fill="#FF156D" stroke="#191919" stroke-width="4"/>
</mask>
<g mask="url(#mask0)">
<circle cx="22" cy="22" r="20.5" fill="#FF156D" stroke="#191919" stroke-width="3"/>
<g style="mix-blend-mode:multiply" opacity="0.2">
<path d="M42 24C28.8657 43.1625 7.19403 38.5469 -2 33.8438V45H42V24Z" fill="#191919"/>
</g>
</g>
<path d="M18.95 14.6501C18.7228 14.4798 18.419 14.4521 18.1648 14.5788C17.9105 14.7063 17.75 14.9658 17.75 15.2501V28.7501C17.75 29.0343 17.9105 29.2938 18.1648 29.4213C18.2705 29.4738 18.386 29.5001 18.5 29.5001C18.659 29.5001 18.818 29.4491 18.95 29.3501L27.95 22.6001C28.139 22.4591 28.25 22.2363 28.25 22.0001C28.25 21.7638 28.139 21.5418 27.95 21.4001L18.95 14.6501Z" fill="white"/>
</svg>
