<svg width="100" height="100" viewBox="0 0 100 100" fill="none" xmlns="http://www.w3.org/2000/svg">
<circle cx="50" cy="50" r="48" stroke="white" stroke-width="4"/>
<path d="M28.74 57.04C27.5267 57.04 26.92 56.9067 26.92 56.64V43.68C26.92 43.2267 27.1267 43 27.54 43H31.06C33.0333 43 34.4533 43.4067 35.32 44.22C36.2 45.0333 36.64 46.2133 36.64 47.76C36.64 49.04 36.2267 50.2133 35.4 51.28C34.9867 51.8133 34.38 52.24 33.58 52.56C32.78 52.88 31.8467 53.04 30.78 53.04V56.62C30.78 56.78 30.5267 56.8933 30.02 56.96C29.5267 57.0133 29.1 57.04 28.74 57.04ZM30.78 46.48V49.64H31.04C31.5067 49.64 31.9 49.4933 32.22 49.2C32.54 48.9067 32.7 48.4933 32.7 47.96C32.7 47.4267 32.5867 47.0467 32.36 46.82C32.1467 46.5933 31.76 46.48 31.2 46.48H30.78ZM39.2063 55.82V43.38C39.2063 43.1 39.8796 42.96 41.2263 42.96C42.5863 42.96 43.2663 43.1 43.2663 43.38V53.18H46.3463C46.5863 53.18 46.7529 53.4933 46.8463 54.12C46.8863 54.4267 46.9063 54.74 46.9063 55.06C46.9063 55.38 46.8863 55.7067 46.8463 56.04C46.7396 56.68 46.5663 57 46.3263 57H40.1663C39.8729 57 39.6396 56.88 39.4663 56.64C39.2929 56.4 39.2063 56.1267 39.2063 55.82ZM58.4977 57.04C57.3377 57.04 56.711 56.8533 56.6177 56.48L55.9577 53.9H52.7777L52.1977 56.38C52.1177 56.7933 51.4777 57 50.2777 57C49.6377 57 49.1643 56.9667 48.8577 56.9C48.551 56.82 48.3977 56.76 48.3977 56.72L51.9377 43.18C51.9377 43.0733 52.851 43.02 54.6777 43.02C56.5043 43.02 57.4177 43.0733 57.4177 43.18L60.8777 56.74C60.8777 56.8333 60.571 56.9067 59.9577 56.96C59.3443 57.0133 58.8577 57.04 58.4977 57.04ZM53.2777 51.36H55.3777L54.4777 47.22H54.3577L53.2777 51.36ZM69.3623 43.66C69.5357 43.1933 70.389 42.96 71.9223 42.96C72.309 42.96 72.7623 42.9867 73.2823 43.04C73.8157 43.0933 74.0623 43.16 74.0223 43.24L69.8623 51.6V56.48C69.8623 56.7067 69.4957 56.8667 68.7623 56.96C68.389 57.0133 68.0223 57.04 67.6623 57.04C67.3023 57.04 66.9423 57.02 66.5823 56.98C65.849 56.8867 65.4823 56.72 65.4823 56.48V51.72L61.1823 43.28C61.129 43.2 61.4023 43.1267 62.0023 43.06C62.6023 42.98 63.109 42.94 63.5223 42.94C65.1623 42.94 66.0623 43.18 66.2223 43.66L67.6823 47.74L69.3623 43.66Z" fill="white"/>
</svg>
