<svg width="18" height="18" viewBox="0 0 18 18" fill="none" xmlns="http://www.w3.org/2000/svg">
<path d="M17.2957 15.7043L12.996 11.4045C13.9804 10.021 14.4091 8.31802 14.197 6.63329C13.9849 4.94855 13.1475 3.405 11.8509 2.30862C10.5543 1.21224 8.893 0.643064 7.19644 0.713927C5.49989 0.78479 3.89188 1.49052 2.69119 2.69121C1.4905 3.8919 0.784774 5.4999 0.713911 7.19646C0.643048 8.89301 1.21222 10.5543 2.3086 11.8509C3.40499 13.1475 4.94853 13.9849 6.63327 14.197C8.31801 14.4091 10.0209 13.9804 11.4045 12.996L15.7042 17.2958L17.2957 15.7043ZM2.24999 7.50001C2.24999 6.46166 2.5579 5.44662 3.13478 4.58326C3.71165 3.7199 4.53159 3.047 5.4909 2.64964C6.45022 2.25228 7.50582 2.14831 8.52422 2.35088C9.54262 2.55346 10.4781 3.05347 11.2123 3.7877C11.9465 4.52192 12.4465 5.45738 12.6491 6.47578C12.8517 7.49418 12.7477 8.54978 12.3504 9.5091C11.953 10.4684 11.2801 11.2883 10.4167 11.8652C9.55338 12.4421 8.53834 12.75 7.49999 12.75C6.10809 12.7484 4.77366 12.1948 3.78943 11.2106C2.80521 10.2263 2.25158 8.89191 2.24999 7.50001Z" fill="#4BDEC7"/>
</svg>
