<svg width="16" height="16" viewBox="0 0 16 16" fill="none" xmlns="http://www.w3.org/2000/svg">
<path d="M10.3075 9.34866C9.61616 9.75466 8.83883 10 8.00016 10C7.1615 10 6.38416 9.75466 5.69283 9.34866C3.26283 9.508 1.3335 11.5307 1.3335 14V15.1533L1.79683 15.302C1.88616 15.33 4.0255 16 8.00016 16C11.9748 16 14.1142 15.33 14.2035 15.302L14.6668 15.1533V14C14.6668 11.5307 12.7375 9.508 10.3075 9.34866Z" fill="#FF156D"/>
<path d="M8 8.66667C10.2527 8.66667 12 6.158 12 4C12 1.794 10.206 0 8 0C5.794 0 4 1.794 4 4C4 6.158 5.74733 8.66667 8 8.66667Z" fill="#FF156D"/>
</svg>
